# AST/ASF file generated using VICON BodyLanguage
# -----------------------------------------------
:version 1.10
:name VICON
:units
  mass 1.0
  length 0.45
  angle deg
:documentation
   .ast/.asf automatically generated from VICON data using
   VICON BodyBuilder and BodyLanguage model FoxedUp or BRILLIANT.MOD
:root
   order TX TY TZ RX RY RZ
   axis XYZ
   position 0 0 0  
   orientation 0 0 0 
:bonedata
  begin
     id 1 
     name lhipjoint
     direction 0.535335 -0.74333 0.401095 
     length 2.04549 
     axis 0 0 0  XYZ
  end
  begin
     id 2 
     name lfemur
     direction 0.34202 -0.939693 0  
     length 6.95643  
     axis 0 0 20  XYZ
    dof rx ry rz
    limits (-160.0 20.0)
           (-70.0 70.0)
           (-60.0 70.0)
  end
  begin
     id 3 
     name ltibia
     direction 0.34192 -0.939729 0   
     length 5.55969   
     axis 0 0 20   XYZ
    dof rx
    limits (-10.0 170.0)
  end
  begin
     id 4 
     name lfoot
     direction 0.216943 -0.596046 0.773088   
     length 2.27918   
     axis -90 7.62852e-016 20   XYZ
    dof rx rz
    limits (-45.0 90.0)
           (-70.0 20.0)
  end
  begin
     id 5 
     name ltoes
     direction 1.53519e-011 -4.21748e-011 1   
     length 1.05562   
     axis -90 7.62852e-016 20   XYZ
    dof rx
    limits (-90.0 20.0)
  end
  begin
     id 6 
     name rhipjoint
     direction -0.576368 -0.719173 0.38806   
     length 2.1142  
     axis 0 0 0  XYZ 
  end
  begin
     id 7 
     name rfemur
     direction -0.34202 -0.939693 0   
     length 7.07928   
     axis 0 0 -20   XYZ
    dof rx ry rz
    limits (-160.0 20.0)
           (-70.0 70.0)
           (-70.0 60.0)
  end
  begin
     id 8 
     name rtibia
     direction -0.34202 -0.939693 0   
     length 5.79974   
     axis 0 0 -20   XYZ
    dof rx
    limits (-10.0 170.0)
 end
 begin
     id 9 
     name rfoot
     direction -0.189288 -0.520065 0.832888   
     length 2.42173  
     axis -90 -7.62852e-016 -20   XYZ
    dof rx rz
    limits (-45.0 90.0)
           (-20.0 70.0)
  end
  begin
     id 10 
     name rtoes
     direction -1.53574e-011 -4.21658e-011 1   
     length 1.14469   
     axis -90 -7.62852e-016 -20   XYZ
    dof rx
    limits (-90.0 20.0)
  end
  begin
     id 11 
     name lowerback
     direction -0.00135702 0.993803 0.111144   
     length 1.91308   
     axis 0 0 0   XYZ
    dof rx ry rz
    limits (-20.0 45.0)
           (-30.0 30.0)
           (-30.0 30.0)
  end
  begin
     id 12 
     name upperback
     direction -0.0056745 0.999813 0.0184631   
     length 1.9212   
     axis 0 0 0   XYZ
    dof rx ry rz
    limits (-20.0 45.0)
           (-30.0 30.0)
           (-30.0 30.0)
  end
  begin
     id 13 
     name thorax
     direction -0.00733434 0.999426 -0.0330788   
     length 1.94196   
     axis 0 0 0   XYZ
    dof rx ry rz
    limits (-20.0 45.0)
           (-30.0 30.0)
           (-30.0 30.0)
  end
  begin
     id 14 
     name lowerneck
     direction 0.0563074 0.996944 -0.0541571   
     length 2.34257   
     axis 0 0 0   XYZ
    dof rx ry rz
    limits (-20.0 45.0)
           (-30.0 30.0)
           (-30.0 30.0)
  end
  begin
     id 15 
     name upperneck
     direction -0.0544519 0.976166 -0.210085   
     length 2.32506   
     axis 0 0 0   XYZ
    dof rx ry rz
    limits (-20.0 45.0)
           (-30.0 30.0)
           (-30.0 30.0)
  end
  begin
     id 16
     name head
     direction -0.0226035 0.997615 -0.0652205  
     length 2.3648  
     axis 0 0 0   XYZ
    dof rx ry rz
    limits (-20.0 45.0)
           (-30.0 30.0)
           (-30.0 30.0)
  end
  begin
     id 17 
     name lclavicle
     direction 0.92109 0.381297 -0.0787716  
     length 4.0487  
     axis 0 0 0   XYZ
    dof ry rz
    limits (-20.0 10.0)
           (0.0 20.0)
  end
  begin
     id 18 
     name lhumerus
     direction 1 -4.48986e-011 3.56724e-027   
     length 4.94991   
     axis 180 -30 -90   XYZ
    dof rx ry rz
    limits (-60.0 90.0)
           (-90.0 90.0)
           (-90.0 90.0)
  end
  begin
     id 19
     name lradius
     direction 1 -4.48981e-011 8.62147e-027   
     length 2.7606   
     axis 180 -30 -90   XYZ
    dof rx
    limits (-10.0 170.0)
  end
  begin
     id 20
     name lwrist
     direction 1 -4.48989e-011 1.59799e-026   
     length 1.3803   
     axis -1.17785e-014 90 90   XYZ
    dof ry
    limits (-180.0 0.0)
 end
  begin
     id 21 
     name lhand
     direction 1 -4.48896e-011 3.19599e-026   
     length 0.843936   
     axis -2.03931e-014 90 90   XYZ
    dof rx rz
    limits (-90.0 90.0)
           (-45.0 45.0)
  end
  begin
     id 22 
     name lfingers
     direction 1 -4.48887e-011 6.39197e-026   
     length 0.680403   
     axis -4.07862e-014 90 90   XYZ
    dof rx
    limits (0.0 90.0)
  end
  begin
     id 23
     name lthumb
     direction 0.707107 -6.348e-011 0.707107   
     length 0.976926   
     axis -90 45 2.85299e-015   XYZ
    dof rx rz
    limits (-45.0 45.0)
           (-45.0 45.0)
  end
  begin
     id 24 
     name rclavicle
     direction -0.951104 0.307692 -0.026953   
     length 4.21801  
     axis 0 0 0   XYZ 
    dof ry rz
    limits (-10.0 20.0)
           (-20.0 0.0)
  end
  begin
     id 25 
     name rhumerus
     direction -1 -4.4896e-011 -1.8171e-018  
     length 4.32982   
     axis 180 30 90   XYZ
    dof rx ry rz
    limits (-90.0 60.0)
           (-90.0 90.0)
           (-90.0 90.0)
  end
  begin
     id 26 
     name rradius
     direction -1 -4.48959e-011 8.25165e-027   
     length 3.20057   
     axis 180 30 90   XYZ
    dof rx
    limits (-10.0 170.0)
  end
  begin
     id 27 
     name rwrist
     direction -1 -4.48997e-011 1.59799e-026   
     length 1.60029   
     axis -1.17785e-014 -90 -90   XYZ
    dof ry
    limits (-180.0 0.0)
  end
  begin
     id 28
     name rhand
     direction -1 -4.49023e-011 3.19599e-026   
     length 0.960433   
     axis -2.03931e-014 -90 -90   XYZ
    dof rx rz
    limits (-90.0 90.0)
           (-45.0 45.0)
  end
  begin
     id 29
     name rfingers
     direction -1 -4.48802e-011 6.39197e-026   
     length 0.774326   
     axis -4.07862e-014 -90 -90   XYZ
    dof rx
    limits (0.0 90.0)
  end
  begin
     id 30
     name rthumb
     direction -0.707107 -6.34876e-011 0.707107   
     length 1.11178   
     axis -90 -45 -2.85299e-015   XYZ
    dof rx rz
    limits (-45.0 45.0)
           (-45.0 45.0)
  end
:hierarchy
  begin
    root lhipjoint rhipjoint lowerback
    lhipjoint lfemur
    lfemur ltibia
    ltibia lfoot
    lfoot ltoes
    rhipjoint rfemur
    rfemur rtibia
    rtibia rfoot
    rfoot rtoes
    lowerback upperback
    upperback thorax
    thorax lowerneck lclavicle rclavicle
    lowerneck upperneck
    upperneck head
    lclavicle lhumerus
    lhumerus lradius
    lradius lwrist
    lwrist lhand lthumb
    lhand lfingers
    rclavicle rhumerus
    rhumerus rradius
    rradius rwrist
    rwrist rhand rthumb
    rhand rfingers
end

#!OML:ASF C:\KaitlinTest1\Natural Motions\Nikki\Session 2\Nikki.ASF
:FULLY-SPECIFIED
:DEGREES
329
root 1.02137 16.5135 5.50359 -162.876 82.6301 -175.509
lowerback -7.19348 -3.07887 2.28306
upperback -4.43081 -4.09857 0.754118
thorax -0.65601 -2.03078 -0.761767
lowerneck 6.55685 -8.17819 -15.3728
upperneck 10.3395 43.5786 7.44049
head 173.003 60.268 -31.6239
rclavicle 1.32029e-014 4.96962e-015
rhumerus -54.6413 -7.66576 -75.953
rradius 24.0416
rwrist 3.23602
rhand -40.3219 5.86518
rfingers 7.12502
rthumb -13.2781 -23.6919
lclavicle 1.32029e-014 4.96962e-015
lhumerus -57.787 30.8246 64.8482
lradius 25.5452
lwrist -28.7684
lhand -34.4365 1.92699
lfingers 7.12502
lthumb -7.60087 31.7704
rfemur -23.6314 -6.30718 21.8665
rtibia 35.7455
rfoot -18.6442 -0.290535
rtoes 2.70347e-014
lfemur -24.0623 -0.0984325 -17.7522
ltibia 30.4117
lfoot -8.04457 -5.98214
ltoes 4.6118e-014
330
root 1.04384 16.5391 5.51279 -162.676 82.5699 -175.368
lowerback -7.35002 -3.09513 2.2386
upperback -4.48548 -4.11682 0.755764
thorax -0.623489 -2.03737 -0.743834
lowerneck 6.79076 -8.14636 -15.3386
upperneck 10.4846 43.7325 7.57783
head 173.159 60.0979 -31.5155
rclavicle 2.49684e-014 7.35503e-015
rhumerus -54.8149 -6.94988 -76.4865
rradius 24.781
rwrist 2.39884
rhand -40.0416 5.69118
rfingers 7.12502
rthumb -13.0079 -23.8833
lclavicle 2.49684e-014 7.35503e-015
lhumerus -57.6678 30.5139 65.1957
lradius 25.7125
lwrist -28.6532
lhand -34.1215 1.81157
lfingers 7.12502
lthumb -7.2968 31.6658
rfemur -22.9225 -6.97162 22.0318
rtibia 34.4409
rfoot -18.2048 0.294084
rtoes -1.59028e-014
lfemur -23.6957 0.343265 -17.771
ltibia 29.7857
lfoot -7.89011 -6.44959
ltoes -8.42847e-014
331
root 1.0676 16.558 5.52155 -161.344 82.5262 -174.073
lowerback -7.48452 -3.10044 2.34057
upperback -4.55198 -4.12776 0.782443
thorax -0.624259 -2.04296 -0.779143
lowerneck 7.06662 -8.09173 -15.2954
upperneck 10.6234 43.8416 7.72069
head 173.384 59.9798 -31.3464
rclavicle 3.99938e-015 -2.83268e-015
rhumerus -54.5884 -6.6613 -76.6776
rradius 24.5867
rwrist 2.0747
rhand -39.9928 6.4901
rfingers 7.12502
rthumb -12.9609 -23.0873
lclavicle 3.99938e-015 -2.83268e-015
lhumerus -57.5624 30.0173 65.6658
lradius 26.1132
lwrist -28.3568
lhand -33.7387 1.69062
lfingers 7.12502
lthumb -6.92731 31.5573
rfemur -22.2254 -7.6007 22.3523
rtibia 33.1794
rfoot -17.8047 0.914588
rtoes -8.26944e-014
lfemur -23.4426 0.883902 -17.6312
ltibia 29.4201
lfoot -7.8694 -6.96248
ltoes 9.54166e-015
332
root 1.08806 16.5625 5.53198 -161.614 82.5083 -174.422
lowerback -7.67401 -3.10058 2.21571
upperback -4.60367 -4.12027 0.759844
thorax -0.56569 -2.03503 -0.742038
lowerneck 7.31018 -8.08038 -15.2626
upperneck 10.6977 43.8116 7.78393
head 173.461 59.9707 -31.252
rclavicle -4.41442e-016 -6.90777e-015
rhumerus -54.4875 -6.29033 -76.95
rradius 24.9008
rwrist 1.75702
rhand -39.8057 6.53057
rfingers 7.12502
rthumb -12.7804 -23.0582
lclavicle -4.41442e-016 -6.90777e-015
lhumerus -57.2046 29.3882 66.3735
lradius 26.3522
lwrist -27.9066
lhand -33.4769 1.75465
lfingers 7.12502
lthumb -6.67461 31.6295
rfemur -21.6337 -8.14313 22.4633
rtibia 32.012
rfoot -17.4772 1.34293
rtoes -6.44062e-014
lfemur -23.3238 1.53184 -17.7382
ltibia 29.2355
lfoot -7.98133 -7.60398
ltoes -7.4743e-014
